<svg width="24" height="24" viewBox="0 0 24 24" fill="none" xmlns="http://www.w3.org/2000/svg">
<path d="M12 21.8C16.216 21.8 19.78 18.46 20.947 14.625C21.209 13.763 23 13.763 23 11.9C23 10.037 21.192 9.93 20.8995 9.024C19.686 5.2675 16.16 2 12 2C7.8375 2 4.31 5.27 3.0985 9.03C2.8075 9.935 1 10.005 1 11.9C1 13.795 2.796 13.795 3.0675 14.671C4.2485 18.482 7.801 21.8 12 21.8Z" stroke="#009CDC"/>
<path d="M20.8995 9.024C19.686 5.2675 16.16 2 12 2" stroke="#009CDC" stroke-linecap="round"/>
<path d="M9.5501 10.8C9.5501 11.213 9.4381 11.576 9.2701 11.828C9.1006 12.082 8.8941 12.2 8.7001 12.2C8.5061 12.2 8.3001 12.082 8.1301 11.828C7.9621 11.576 7.8501 11.213 7.8501 10.8C7.8501 10.3865 7.9621 10.024 8.1301 9.77203C8.3001 9.51803 8.5061 9.40002 8.7001 9.40002C8.8946 9.40002 9.1006 9.51803 9.2701 9.77203C9.4381 10.024 9.5501 10.387 9.5501 10.8ZM16.1501 10.8C16.1501 11.213 16.0381 11.576 15.8701 11.828C15.7006 12.082 15.4941 12.2 15.3001 12.2C15.1061 12.2 14.8996 12.082 14.7301 11.828C14.5621 11.576 14.4501 11.213 14.4501 10.8C14.4501 10.3865 14.5621 10.024 14.7301 9.77203C14.8996 9.51803 15.1061 9.40002 15.3001 9.40002C15.4941 9.40002 15.7006 9.51803 15.8701 9.77203C16.0381 10.024 16.1501 10.387 16.1501 10.8Z" fill="#009CDC"/>
<path d="M9.24902 15.875C10.214 16.525 11.133 16.85 12.0045 16.85C12.8755 16.85 13.739 16.5255 14.5945 15.8775M15.864 3.09998C15.998 4.06698 15.7035 4.77348 14.9795 5.21948C14.256 5.66548 13.08 5.87448 11.452 5.84648" stroke="#009CDC" stroke-linecap="round"/>
</svg>
