<svg width="24" height="24" viewBox="0 0 24 24" fill="none" xmlns="http://www.w3.org/2000/svg">
<g clip-path="url(#clip0_2639_1984)">
<path fill-rule="evenodd" clip-rule="evenodd" d="M0 0H24V24H0V0Z" fill="#EFEFF5"/>
<path d="M17.6596 18.3064C15.0372 17.3511 14.1989 16.5447 14.1989 14.8181C14.1989 13.7819 15.0582 13.1104 15.351 12.2224C15.644 11.3343 15.8134 10.2829 15.9542 9.51808C16.0951 8.75327 16.151 8.45745 16.2276 7.64255C16.3213 6.62553 15.6404 4 12 4C8.36065 4 7.67765 6.62553 7.7734 7.64255C7.85 8.45745 7.90627 8.7533 8.0468 9.51808C8.18735 10.2829 8.35513 11.3342 8.64785 12.2224C8.94055 13.1105 9.80102 13.7819 9.80102 14.8181C9.80102 16.5447 8.96272 17.3511 6.34038 18.3064C3.70852 19.2638 2 20.208 2 20.875V24H22V20.875C22 20.2091 20.2904 19.2649 17.6596 18.3064Z" fill="#D1D2DF"/>
</g>
<defs>
<clipPath id="clip0_2639_1984">
<rect width="24" height="24" rx="12" fill="white"/>
</clipPath>
</defs>
</svg>
