<svg width="36" height="36" viewBox="0 0 36 36" fill="none" xmlns="http://www.w3.org/2000/svg">
<path d="M26.121 15.621C27 14.742 27 13.329 27 10.5C27 7.671 27 6.258 26.121 5.379M26.121 15.621C25.242 16.5 23.829 16.5 21 16.5H15C12.171 16.5 10.758 16.5 9.879 15.621M26.121 5.379C25.242 4.5 23.829 4.5 21 4.5H15C12.171 4.5 10.758 4.5 9.879 5.379M9.879 5.379C9 6.258 9 7.671 9 10.5C9 13.329 9 14.742 9.879 15.621M19.5 10.5C19.5 10.8978 19.342 11.2794 19.0607 11.5607C18.7794 11.842 18.3978 12 18 12C17.6022 12 17.2206 11.842 16.9393 11.5607C16.658 11.2794 16.5 10.8978 16.5 10.5C16.5 10.1022 16.658 9.72064 16.9393 9.43934C17.2206 9.15804 17.6022 9 18 9C18.3978 9 18.7794 9.15804 19.0607 9.43934C19.342 9.72064 19.5 10.1022 19.5 10.5Z" stroke="#009CDC"/>
<path d="M27 9C25.8065 9 24.6619 8.52589 23.818 7.68198C22.9741 6.83807 22.5 5.69347 22.5 4.5M27 12C25.8065 12 24.6619 12.4741 23.818 13.318C22.9741 14.1619 22.5 15.3065 22.5 16.5M9 9C10.1935 9 11.3381 8.52589 12.182 7.68198C13.0259 6.83807 13.5 5.69347 13.5 4.5M9 12C10.1935 12 11.3381 12.4741 12.182 13.318C13.0259 14.1619 13.5 15.3065 13.5 16.5M7.5 30.582H10.89C12.405 30.582 13.9395 30.741 15.414 31.044C18.0465 31.5848 20.7551 31.6448 23.409 31.221C24.711 31.011 25.989 30.6885 27.147 30.1305C28.191 29.625 29.4705 28.9155 30.33 28.119C31.188 27.324 32.082 26.0235 32.715 25.0065C33.261 24.1335 32.997 23.064 32.136 22.4145C31.6522 22.0626 31.0693 21.873 30.471 21.873C29.8727 21.873 29.2898 22.0626 28.806 22.4145L26.0955 24.462C25.0455 25.257 23.898 25.9875 22.5315 26.205C22.3665 26.2305 22.194 26.2545 22.014 26.2755M22.014 26.2755C21.959 26.2819 21.904 26.2879 21.849 26.2935M22.014 26.2755C22.2541 26.2106 22.4742 26.0868 22.6545 25.9155C22.8805 25.72 23.0651 25.4811 23.1973 25.2131C23.3296 24.945 23.4068 24.6532 23.4244 24.3549C23.442 24.0565 23.3997 23.7577 23.2999 23.4759C23.2001 23.1942 23.045 22.9353 22.8435 22.7145C22.648 22.4975 22.4204 22.3118 22.1685 22.164C17.973 19.6605 11.4435 21.567 7.5 24.3645M22.014 26.2755C21.9598 26.2873 21.9045 26.2933 21.849 26.2935M21.849 26.2935C20.9444 26.3844 20.033 26.3864 19.128 26.2995" stroke="#009CDC" stroke-linecap="round"/>
<path d="M7.5 23.25C7.5 22.0074 6.49264 21 5.25 21C4.00736 21 3 22.0074 3 23.25V30.75C3 31.9926 4.00736 33 5.25 33C6.49264 33 7.5 31.9926 7.5 30.75V23.25Z" stroke="#009CDC"/>
</svg>
