<svg width="24" height="24" viewBox="0 0 24 24" fill="none" xmlns="http://www.w3.org/2000/svg">
<path d="M16.7267 22.8H8.07332C4.7244 22.8 2 20.0756 2 16.7267V8.07332C2 4.7244 4.7244 2 8.07332 2H16.7267C20.0756 2 22.8 4.7244 22.8 8.07332V16.7267C22.8 20.0756 20.0756 22.8 16.7267 22.8ZM8.07332 3.76271C5.69642 3.76271 3.76271 5.69642 3.76271 8.07332V16.7267C3.76271 19.1036 5.69642 21.0373 8.07332 21.0373H16.7267C19.1036 21.0373 21.0373 19.1036 21.0373 16.7267V8.07332C21.0373 5.69642 19.1036 3.76271 16.7267 3.76271H8.07332Z" fill="#535460"/>
<path d="M12.4004 18.0406C9.29022 18.0406 6.75977 15.5102 6.75977 12.4C6.75977 9.28973 9.29022 6.75928 12.4004 6.75928C15.5107 6.75928 18.0411 9.28973 18.0411 12.4C18.0411 15.5102 15.5107 18.0406 12.4004 18.0406ZM12.4004 8.52199C10.262 8.52199 8.52248 10.2615 8.52248 12.4C8.52248 14.5384 10.262 16.2779 12.4004 16.2779C14.5389 16.2779 16.2784 14.5384 16.2784 12.4C16.2784 10.2615 14.5389 8.52199 12.4004 8.52199Z" fill="#535460"/>
<path d="M18.8538 6.75329C18.8538 7.19879 18.4925 7.56006 18.047 7.56006C17.6015 7.56006 17.2402 7.19879 17.2402 6.75329C17.2402 6.3078 17.6015 5.94653 18.047 5.94653C18.4925 5.94653 18.8538 6.3078 18.8538 6.75329Z" fill="#535460"/>
</svg>
