<svg width="36" height="36" viewBox="0 0 36 36" fill="none" xmlns="http://www.w3.org/2000/svg">
<path d="M3.18438 28.0714H33.5032M34.3606 11.832C34.1334 11.1375 33.6444 10.5634 33.0013 10.2358C32.3582 9.90817 31.6135 9.85399 30.9312 10.0851L23.7382 12.527C23.5176 12.6019 23.2778 12.5974 23.0602 12.5143L10.3365 7.65824C10.0725 7.55748 9.77822 7.57311 9.52639 7.70126L8.06232 8.4463C7.38402 8.79147 7.32459 9.73772 7.95439 10.165L15.2582 15.1207C15.888 15.548 15.8285 16.4942 15.1502 16.8394L10.3754 19.2692C10.0905 19.4142 9.75333 19.4142 9.46836 19.2692L3.83756 16.4038C3.44873 16.206 2.9765 16.283 2.67073 16.5942L2.18863 17.0849C1.80637 17.4739 1.80637 18.0975 2.18863 18.4866L7.77895 24.1761C8.0575 24.4596 8.47749 24.5513 8.84881 24.4096L32.7402 15.2914C33.3976 15.0402 33.9337 14.5395 34.2359 13.8943C34.5381 13.2492 34.5828 12.51 34.3606 11.832Z" stroke="#009CDC" stroke-linecap="round"/>
</svg>
