<svg width="24" height="24" viewBox="0 0 24 24" fill="none" xmlns="http://www.w3.org/2000/svg">
<path d="M1.68725 18.7521H22M19.5647 15.713C20.0251 15.8087 20.5048 15.723 20.903 15.4738C21.301 15.2246 21.5866 14.8316 21.6997 14.3771C21.6998 14.3768 21.6998 14.3764 21.6998 14.376V14.376C21.6998 14.3756 21.6999 14.3753 21.7 14.3749C21.7572 14.1444 21.7683 13.9049 21.7326 13.6701C21.6968 13.4351 21.615 13.2094 21.4916 13.006C21.3682 12.8025 21.2058 12.6253 21.0137 12.4844C20.8215 12.3435 20.6033 12.2417 20.3716 12.1849L15.5507 10.9961C15.3287 10.9413 15.1322 10.8122 14.9939 10.6301L9.65234 3.59929C9.48449 3.37835 9.23239 3.23709 8.95633 3.20927L8.59653 3.17302C7.83199 3.09598 7.26984 3.87417 7.58321 4.57579L9.48341 8.83034C9.79673 9.53185 9.23478 10.31 8.47033 10.2331L5.66282 9.95093C5.35023 9.91951 5.07058 9.74302 4.90771 9.47437L2.90282 6.16735C2.69636 5.82679 2.29557 5.656 1.90692 5.74295V5.74295C1.4063 5.85496 1.0916 6.352 1.20447 6.85244L2.25763 11.5218C2.34392 11.9044 2.64588 12.2012 3.02989 12.2809L19.5647 15.713Z" stroke="#009CDC" stroke-linecap="round"/>
</svg>
