<svg width="24" height="24" viewBox="0 0 24 24" fill="none" xmlns="http://www.w3.org/2000/svg">
<path d="M21 11H13V4C13 3.44772 13.45 2.99345 13.998 3.06158C17.9466 3.55243 21 6.91799 21 11ZM21 11C21.0007 12.7717 20.4094 14.4928 19.32 15.89L18.1192 17.5M21 11H7.07208C6.68602 11 6.33444 10.7778 6.1688 10.4291L5.7612 9.57094C5.59556 9.22222 5.24398 9 4.85792 9H3C2.44772 9 2 9.44772 2 10V10C2 10.5523 2.44772 11 3 11H3.58181C3.97102 11 4.3241 11.2242 4.48876 11.5769C5.01909 12.7127 6.16424 15.1525 6.34 15.42L7.24604 17.2022M9.5 18.5H15.5M9.5 18.5C9.5 17.67 8.83 17 8 17C7.72491 17 7.4674 17.0736 7.24604 17.2022M9.5 18.5C9.5 19.33 8.83 20 8 20C7.17 20 6.5 19.33 6.5 18.5C6.5 17.9451 6.79948 17.4617 7.24604 17.2022M15.5 18.5C15.5 19.33 16.17 20 17 20C17.83 20 18.5 19.33 18.5 18.5C18.5 18.1154 18.3561 17.7652 18.1192 17.5M15.5 18.5C15.5 17.67 16.17 17 17 17C17.4454 17 17.8447 17.1929 18.1192 17.5" stroke="#009CDC"/>
</svg>
