<svg width="20" height="21" viewBox="0 0 20 21" fill="none" xmlns="http://www.w3.org/2000/svg">
<g clip-path="url(#clip0_2887_2920)">
<path d="M7.50008 18.8333C7.96032 18.8333 8.33341 18.4602 8.33341 18C8.33341 17.5398 7.96032 17.1667 7.50008 17.1667C7.03984 17.1667 6.66675 17.5398 6.66675 18C6.66675 18.4602 7.03984 18.8333 7.50008 18.8333Z" stroke="white" stroke-linecap="round" stroke-linejoin="round"/>
<path d="M16.6666 18.8333C17.1268 18.8333 17.4999 18.4602 17.4999 18C17.4999 17.5398 17.1268 17.1667 16.6666 17.1667C16.2063 17.1667 15.8333 17.5398 15.8333 18C15.8333 18.4602 16.2063 18.8333 16.6666 18.8333Z" stroke="white" stroke-linecap="round" stroke-linejoin="round"/>
<path d="M0.833252 1.33334H4.16658L6.39992 12.4917C6.47612 12.8753 6.68484 13.22 6.98954 13.4653C7.29424 13.7105 7.6755 13.8408 8.06658 13.8333H16.1666C16.5577 13.8408 16.9389 13.7105 17.2436 13.4653C17.5483 13.22 17.757 12.8753 17.8333 12.4917L19.1666 5.50001H4.99992" stroke="white" stroke-linecap="round" stroke-linejoin="round"/>
</g>
<defs>
<clipPath id="clip0_2887_2920">
<rect width="20" height="20" fill="white" transform="translate(0 0.5)"/>
</clipPath>
</defs>
</svg>
