<svg width="24" height="24" viewBox="0 0 24 24" fill="none" xmlns="http://www.w3.org/2000/svg">
<path fill-rule="evenodd" clip-rule="evenodd" d="M1.64987 10.7489C8.09231 8.20867 12.3883 6.534 14.5378 5.72489C20.675 3.4147 21.9503 3.01339 22.7815 3.00014C22.9643 2.99723 23.3731 3.03823 23.6379 3.23267C23.8614 3.39685 23.9229 3.61863 23.9524 3.77429C23.9818 3.92995 24.0185 4.28455 23.9893 4.56163C23.6568 7.7241 22.2177 15.3986 21.4856 18.9406C21.1758 20.4394 20.5658 20.9419 19.9753 20.9911C18.6919 21.098 17.7174 20.2235 16.4744 19.4861C14.5294 18.3323 13.4305 17.614 11.5425 16.488C9.36064 15.1868 10.7751 14.4716 12.0185 13.3027C12.344 12.9969 17.9985 8.34226 18.1079 7.92001C18.1216 7.86721 18.1343 7.67036 18.0051 7.56642C17.8759 7.46248 17.6851 7.49802 17.5475 7.52629C17.3524 7.56636 14.2452 9.42501 8.22584 13.1022C7.34386 13.6503 6.545 13.9174 5.82924 13.9034C5.04018 13.888 3.52233 13.4996 2.39397 13.1677C1.00999 12.7606 -0.0899676 12.5453 0.00581423 11.8539C0.0557033 11.4937 0.603723 11.1254 1.64987 10.7489Z" fill="#535460"/>
</svg>
