<svg width="16" height="17" viewBox="0 0 16 17" fill="none" xmlns="http://www.w3.org/2000/svg">
<g clip-path="url(#clip0_2776_3970)">
<path d="M6.81274 4.59708L7.5213 5.00617M8.93844 5.82435L9.647 6.23344M11.0641 7.05162L11.7727 7.46071M4.01553 9.44197L4.7241 9.85106M6.14123 10.6692L6.8498 11.0783M8.26693 11.8965L8.9755 12.3056M9.47958 2.43251L9.47399 2.4422C9.26203 2.80933 9.20805 3.24762 9.32394 3.66066C9.43982 4.07369 9.71607 4.42764 10.0919 4.64464C10.4678 4.86163 10.9124 4.9239 11.3281 4.81774C11.7437 4.71158 12.0963 4.44569 12.3083 4.07856L12.3135 4.06777L14.0857 5.09091C14.2736 5.19941 14.4117 5.37638 14.4697 5.5829C14.5276 5.78942 14.5006 6.00856 14.3946 6.19213L9.19383 15.2002C9.08785 15.3837 8.91156 15.5167 8.70373 15.5698C8.49591 15.6228 8.27359 15.5917 8.08566 15.4832L6.31425 14.4605C6.52621 14.0934 6.58018 13.6551 6.4643 13.242C6.34841 12.829 6.07216 12.475 5.69632 12.258C5.32047 12.0411 4.87581 11.9788 4.46017 12.0849C4.04453 12.1911 3.69194 12.457 3.47998 12.8241L1.70857 11.8014C1.52064 11.6929 1.38252 11.5159 1.32457 11.3094C1.26663 11.1029 1.29362 10.8837 1.3996 10.7002L6.6004 1.69213C6.70638 1.50856 6.88267 1.37562 7.09049 1.32254C7.29832 1.26946 7.52064 1.30059 7.70857 1.40909L9.47958 2.43251Z" stroke="#8E8F9B" stroke-linecap="round" stroke-linejoin="round"/>
</g>
<defs>
<clipPath id="clip0_2776_3970">
<rect width="16" height="16" fill="white" transform="translate(0 0.5)"/>
</clipPath>
</defs>
</svg>
