<svg width="36" height="36" viewBox="0 0 36 36" fill="none" xmlns="http://www.w3.org/2000/svg">
<rect x="1.5" y="12.5" width="33" height="17" rx="2.5" stroke="#009CDC"/>
<path d="M6.48438 12.5L28.1931 6.68315C29.7935 6.25433 31.4386 7.20408 31.8674 8.80447L32.8576 12.5" stroke="#009CDC"/>
<path d="M28.9324 19.0216C28.8222 18.6975 28.5852 18.4296 28.2734 18.2767C27.9615 18.1238 27.6005 18.0985 27.2697 18.2064L23.9465 19.2923C23.7329 19.362 23.502 19.3579 23.2911 19.2804L17.417 17.1226C17.2039 17.0443 16.968 17.0565 16.7641 17.1563V17.1563C16.1846 17.4402 16.1348 18.2472 16.6752 18.6001L18.8774 20.0383C19.5269 20.4624 19.4671 21.4324 18.7705 21.7736L17.5232 22.3846C17.2457 22.5205 16.921 22.5205 16.6435 22.3846L14.2367 21.2057C13.9849 21.0824 13.6828 21.1311 13.4826 21.3273V21.3273C13.2177 21.5868 13.2177 22.0132 13.4826 22.2727L15.8153 24.5578C16.091 24.8279 16.4975 24.9152 16.8598 24.7821L28.1468 20.636C28.4655 20.5188 28.7254 20.2851 28.872 19.984C29.0185 19.683 29.0401 19.338 28.9324 19.0216Z" stroke="#009CDC"/>
<path d="M7.33398 16V26" stroke="#009CDC" stroke-linecap="round"/>
</svg>
