<svg width="24" height="24" viewBox="0 0 24 24" fill="none" xmlns="http://www.w3.org/2000/svg">
<path d="M16.2425 12.2425C16.8005 11.686 17.243 11.0247 17.5446 10.2966C17.8462 9.56857 18.001 8.78807 18 8C18 4.6865 15.3135 2 12 2C8.6865 2 6 4.6865 6 8C6 9.657 6.6715 11.157 7.7575 12.2425" stroke="#009CDC" stroke-linecap="round"/>
<path d="M3 22L3.5 19.5L9 15.5L12 18.5L15 15.5L20.5 19.5L21 22" stroke="#009CDC" stroke-linecap="round" stroke-linejoin="round"/>
<path d="M6.49658 10.5035C6.50308 8.4485 6.83758 6.947 7.50008 6C8.49408 4.5795 9.19358 4.684 9.70258 4.905C10.2121 5.1265 10.5116 6.572 11.3621 6.989C12.2121 7.4055 14.3891 7.457 15.1346 7.9585C15.8796 8.4595 17.5846 9.392 17.1596 10.984" stroke="#009CDC"/>
</svg>
