<svg width="110" height="38" viewBox="0 0 110 38" fill="none" xmlns="http://www.w3.org/2000/svg">
<g clip-path="url(#clip0_2068_6095)">
<path fill-rule="evenodd" clip-rule="evenodd" d="M90.9436 36.8471H71.1183C70.1298 36.8471 69.6081 36.3574 69.6081 35.3508V19.7618C69.6081 19.2993 69.7454 18.9184 70.0474 18.6736C70.3495 18.4287 70.7064 18.2927 71.0909 18.2927C71.5027 18.2927 71.8323 18.4287 72.1343 18.6736C72.4363 18.9184 72.5736 19.2993 72.5736 19.7618V33.8544H90.9161C91.3555 33.8544 91.7124 33.9905 91.9596 34.2897C92.2067 34.589 92.3165 34.9427 92.3165 35.3508C92.3165 35.7589 92.1792 36.1125 91.9596 36.4118C91.7399 36.7111 91.3829 36.8471 90.9436 36.8471ZM66.2307 36.7111H1.8672C1.4004 36.7111 1.04343 36.575 0.796306 36.2758C0.549176 35.9765 0.411882 35.65 0.411882 35.2691C0.411882 34.8611 0.549176 34.5346 0.796306 34.2353C1.04343 33.9361 1.42786 33.8 1.8672 33.8H66.2307C66.6974 33.8 67.0544 33.9361 67.3015 34.2353C67.5487 34.5346 67.686 34.8611 67.686 35.2691C67.686 35.65 67.5487 36.0037 67.3015 36.2758C67.0544 36.575 66.6974 36.7111 66.2307 36.7111ZM15.1023 24.5228C15.1023 25.5294 14.6081 26.0464 13.5647 26.0464H2.99301V29.3383C2.99301 29.8008 2.85572 30.1816 2.55367 30.4265C2.25162 30.6986 1.89466 30.8074 1.48278 30.8074C1.07089 30.8074 0.741388 30.6714 0.439341 30.4265C0.137294 30.1816 0 29.8008 0 29.3383V18.2111H13.5647C14.5806 18.2111 15.0749 18.7008 15.0749 19.7346V24.5228H15.1023ZM12.1093 23.0265V21.2309H2.99301V23.0265H12.1093ZM31.1932 30.8346H19.1113C18.1228 30.8346 17.6011 30.3449 17.6011 29.3111V19.7346C17.6011 18.728 18.0954 18.2111 19.1113 18.2111H31.1932C31.66 18.2111 32.0444 18.3471 32.319 18.6464C32.5936 18.9456 32.7309 19.2993 32.7309 19.7074C32.7309 20.1155 32.5936 20.4691 32.319 20.7684C32.0444 21.0677 31.6875 21.2037 31.1932 21.2037H20.5941V22.9993H31.1658C31.6325 22.9993 32.017 23.1353 32.2916 23.4346C32.5662 23.7339 32.7034 24.0875 32.7034 24.4956C32.7034 24.9037 32.5662 25.2574 32.2916 25.5566C32.017 25.8559 31.66 25.9919 31.1658 25.9919H20.5941V27.7603H31.1658C31.6325 27.7603 32.017 27.8964 32.2916 28.1956C32.5662 28.4949 32.7034 28.8486 32.7034 29.2566C32.7034 29.6647 32.5662 30.0184 32.2916 30.3177C32.017 30.6714 31.66 30.8346 31.1932 30.8346ZM50.1123 24.5228C50.1123 25.5294 49.6181 26.0464 48.6296 26.0464H44.4284C45.2796 26.3728 46.8722 27.0258 49.2062 27.9508C49.8377 28.1956 50.1398 28.6581 50.1398 29.2839C50.1398 29.6919 50.0025 30.0456 49.7279 30.3721C49.4533 30.6986 49.1238 30.8618 48.7119 30.8618C48.5197 30.8618 48.3 30.8074 48.0804 30.7258L38.0579 26.7265V29.3655C38.0579 29.8552 37.9206 30.2089 37.6186 30.4537C37.3165 30.7258 36.9596 30.8346 36.5751 30.8346C36.1633 30.8346 35.8337 30.6986 35.5317 30.4537C35.2297 30.1816 35.0924 29.828 35.0924 29.3655V19.7346C35.0924 18.728 35.5866 18.2111 36.6026 18.2111H48.6845C49.673 18.2111 50.1947 18.7008 50.1947 19.7346V24.5228H50.1123ZM46.8997 23.0265V21.2309H37.8108V23.0265H46.8997ZM66.2032 30.8346H54.1213C53.1328 30.8346 52.6111 30.3449 52.6111 29.3111V19.7346C52.6111 18.728 53.1053 18.2111 54.1213 18.2111H66.2032C66.67 18.2111 67.0544 18.3471 67.329 18.6464C67.6036 18.9456 67.7409 19.2993 67.7409 19.7074C67.7409 20.1155 67.6036 20.4691 67.329 20.7684C67.0544 21.0677 66.6975 21.2037 66.2032 21.2037H55.6316V22.9993H66.2032C66.67 22.9993 67.0544 23.1353 67.329 23.4346C67.6036 23.7339 67.7409 24.0875 67.7409 24.4956C67.7409 24.9037 67.6036 25.2574 67.329 25.5566C67.0544 25.8559 66.6975 25.9919 66.2032 25.9919H55.6316V27.7603H66.2032C66.67 27.7603 67.0544 27.8964 67.329 28.1956C67.6036 28.4949 67.7409 28.8486 67.7409 29.2566C67.7409 29.6647 67.6036 30.0184 67.329 30.3177C67.027 30.6714 66.67 30.8346 66.2032 30.8346ZM90.6141 30.8346C91.0809 30.8346 91.4653 30.6986 91.7399 30.3993C92.0145 30.1 92.1518 29.7464 92.1518 29.3383C92.1518 28.9302 92.0145 28.5765 91.7399 28.2772C91.4653 27.978 91.1083 27.8419 90.6141 27.8419H80.0424V26.0736H90.6141C91.0809 26.0736 91.4653 25.9375 91.7399 25.6383C92.0145 25.339 92.1518 24.9853 92.1518 24.5772C92.1518 24.1691 92.0145 23.8155 91.7399 23.5162C91.4653 23.2169 91.1083 23.0809 90.6141 23.0809H80.0424V21.2853H90.6141C91.0809 21.2853 91.4653 21.1493 91.7399 20.85C92.0145 20.5508 92.1518 20.1971 92.1518 19.789C92.1518 19.3809 92.0145 19.0272 91.7399 18.728C91.4653 18.4287 91.1083 18.2927 90.6141 18.2927H78.5322C77.5437 18.2927 77.022 18.7824 77.022 19.8162V29.3927C77.022 30.3993 77.5162 30.9162 78.5322 30.9162H90.6141V30.8346ZM108.38 21.2309H103.465V29.3111C103.465 29.7736 103.328 30.1544 103.025 30.3993C102.723 30.6714 102.366 30.7802 101.955 30.7802C101.543 30.7802 101.213 30.6441 100.911 30.3993C100.609 30.1544 100.472 29.7736 100.472 29.3111V21.2309H95.5017C95.0075 21.2309 94.6505 21.0949 94.3759 20.7956C94.1013 20.4964 93.9641 20.1427 93.9641 19.7346C93.9641 19.3265 94.1013 18.9728 94.3759 18.6736C94.6505 18.3743 95.0075 18.2383 95.5017 18.2383H108.38C108.847 18.2383 109.231 18.3743 109.506 18.6736C109.78 18.9728 109.918 19.3265 109.918 19.7346C109.918 20.1427 109.78 20.4964 109.506 20.7956C109.231 21.0949 108.847 21.2309 108.38 21.2309Z" fill="#009CDC"/>
<path fill-rule="evenodd" clip-rule="evenodd" d="M95.364 33.2015H94.0186V37.5001H95.3915V36.1398L95.3366 35.1603L96.8743 37.5001H98.2198V33.2015H96.8468V34.5618L96.9017 35.5412L95.364 33.2015ZM104.123 37.5001V36.4934H101.927V35.8133H103.712V34.8067H101.927V34.1809H104.041V33.1743H100.499V37.5001H104.123ZM106.018 34.3442H107.309V37.5001H108.736V34.317H110.027V33.1743H106.046V34.3442H106.018Z" fill="#F59E33"/>
<path fill-rule="evenodd" clip-rule="evenodd" d="M49.9201 5.99556C49.9201 6.10438 49.8377 6.13159 49.7279 6.13159C49.4533 6.15879 47.8057 6.13159 47.4762 6.13159C46.625 6.13159 45.7738 6.13159 44.9226 6.13159C45.0049 6.29482 45.1148 6.48526 45.2521 6.62129C45.7189 7.08379 45.8287 7.00217 46.4877 7.00217C47.5861 7.00217 48.6844 7.00217 49.7828 7.00217C50.0299 7.00217 50.4967 6.92056 50.4967 7.1382C50.4967 7.27423 50.1947 7.24703 50.0299 7.24703H45.966C45.9935 7.32864 46.0484 7.41026 46.1033 7.49188C46.1308 7.54629 46.1582 7.54629 46.1857 7.6007C46.7898 8.25365 47.0918 8.14482 48.1078 8.14482H50.7713C50.9635 8.14482 50.9635 8.14482 51.0733 8.22644C50.991 8.36247 50.9635 8.36247 50.7164 8.36247H47.0918C47.1193 8.5257 47.3939 8.82497 47.5312 8.93379C47.6959 9.06982 47.9705 9.23306 48.2451 9.23306H52.1442C52.7483 9.23306 53.5172 8.60732 53.627 8.09041C53.5446 8.036 53.4623 8.00879 53.3524 7.98159C52.666 7.68232 52.1992 7.35585 51.6774 6.83894C51.2381 6.40364 50.9086 5.77791 50.7713 5.15217C50.7438 5.07056 50.7713 5.07056 50.6615 5.07056C50.5242 5.07056 50.3869 5.07056 50.2496 5.07056C48.1078 5.07056 45.966 5.07056 43.8242 5.07056C44.0164 5.36982 44.3459 5.83232 44.7304 5.91394C44.8677 5.94115 48.7119 5.91394 49.1512 5.91394C49.3434 5.88673 49.9201 5.83232 49.9201 5.99556Z" fill="#004E8D"/>
<path fill-rule="evenodd" clip-rule="evenodd" d="M56.1533 8.06319C56.1808 8.22643 56.2906 8.38967 56.373 8.49849C56.6476 8.87937 57.1693 9.20584 57.6636 9.20584H61.5352C62.0295 9.20584 62.6061 8.66172 62.6885 8.33525H59.1189C58.8992 8.33525 58.8168 8.33525 58.707 8.22643C58.7344 8.0904 58.7894 8.0904 58.9541 8.0904H62.3865C62.716 8.0904 62.8258 8.0904 63.0455 7.98158C63.2926 7.84555 63.4848 7.68231 63.6496 7.46467C63.7045 7.41025 63.7869 7.30143 63.7869 7.21981H59.4758C59.4209 7.21981 59.3935 7.21981 59.3385 7.19261C59.2013 7.11099 59.2562 6.97496 59.5308 6.97496H62.4139C62.7434 6.97496 63.8143 7.02937 64.034 6.94775C64.2811 6.86614 64.5557 6.59408 64.693 6.37643C64.7479 6.32202 64.8303 6.18599 64.8578 6.10437H60.382C60.2996 6.10437 59.8603 6.13158 59.8603 5.99555C59.8603 5.7779 60.2996 5.85952 60.6016 5.85952H64.1438C64.4184 5.85952 64.7754 5.88672 65.0225 5.85952C65.4069 5.83231 65.7639 5.3154 65.9561 5.01614C63.7045 5.01614 61.3705 5.04334 59.1463 5.01614C58.9816 5.01614 59.0365 4.98893 58.9816 5.26099C58.8717 5.61467 58.7894 5.80511 58.6246 6.10437C58.2951 6.73011 57.691 7.21981 57.1144 7.57349L56.1533 8.06319Z" fill="#004E8D"/>
<path fill-rule="evenodd" clip-rule="evenodd" d="M60.9315 11.4911C60.9315 11.6544 61.0688 12.4705 61.0963 12.6882C61.1238 12.797 61.1512 12.9875 61.1512 13.0963H60.2451C60.2451 13.0147 60.7393 11.872 60.8217 11.6816C60.8492 11.6272 60.8492 11.6272 60.8766 11.5728L60.9315 11.4911ZM58.1582 14.5654H59.6135C59.641 14.4838 59.8332 14.1029 59.8332 14.0213H61.2885C61.2885 14.2117 61.3434 14.375 61.3434 14.5654H62.7164C62.7164 14.4838 62.6889 14.375 62.6614 14.2933L61.8651 10.3485C61.8377 10.2125 61.8377 10.1036 61.7553 10.1036H60.3824C60.3274 10.1036 60.3 10.158 60.3 10.2125L58.4053 14.0213C58.3779 14.1301 58.2131 14.4294 58.1582 14.5654Z" fill="#004E8D"/>
<path fill-rule="evenodd" clip-rule="evenodd" d="M52.0896 11.4911C52.0896 11.6 52.1171 11.7632 52.1445 11.8992L52.3368 13.0963H51.4032L52.0896 11.4911ZM49.3438 14.5654H50.8265C50.8265 14.4838 50.9638 14.2389 50.9913 14.1573C51.0187 14.1029 51.0187 14.0485 51.0737 14.0485H52.4741C52.4741 14.2389 52.5564 14.4022 52.5564 14.5926H53.9294C53.9294 14.4838 53.1605 10.8382 53.0782 10.3485C53.0507 10.2669 53.0507 10.1036 52.9683 10.1036H51.6228C51.5405 10.1036 51.3482 10.5661 51.3208 10.6205L49.3438 14.5654Z" fill="#004E8D"/>
<path fill-rule="evenodd" clip-rule="evenodd" d="M54.5059 11.2191H55.769C55.769 11.3551 55.4395 13.4499 55.412 13.722L55.2747 14.5654H56.73C56.7575 14.4566 56.7849 14.2933 56.7849 14.1573L57.1419 11.6544C57.1694 11.5183 57.1968 11.3551 57.1968 11.2191H58.1579C58.4874 11.2191 58.405 11.3007 58.4874 10.8926L58.5972 10.3485C58.6247 10.2669 58.6521 10.158 58.6521 10.0764H54.6981L54.5059 11.2191Z" fill="#004E8D"/>
<path fill-rule="evenodd" clip-rule="evenodd" d="M48.4094 14.5654C48.4918 14.5654 48.4643 14.511 48.4918 14.3477L49.2057 10.7566C49.2332 10.6205 49.2606 10.5117 49.2881 10.4029C49.3156 10.3213 49.3156 10.2941 49.3156 10.2124C49.343 10.1308 49.3705 10.0764 49.2881 10.0764H47.9152C47.8328 10.0764 47.8328 10.2124 47.8053 10.2941L47.3934 12.2801C47.3111 12.661 47.2561 13.0147 47.1738 13.3955C47.1463 13.586 47.0914 13.7764 47.0639 13.9669L46.9541 14.5382H48.4094V14.5654Z" fill="#004E8D"/>
<path fill-rule="evenodd" clip-rule="evenodd" d="M52.4466 6.37645C52.4741 6.34924 52.5016 6.32204 52.5565 6.29483C52.7487 6.1588 53.188 5.85954 53.3802 5.80513C53.3802 5.72351 53.2979 5.53307 53.2429 5.39704C53.188 5.26101 53.1606 5.12498 53.1056 4.98895C53.0507 4.7713 52.9684 4.2816 52.9684 4.03674H51.4307C51.4307 4.55365 51.6503 5.2338 51.9249 5.6691C51.9798 5.75071 52.0348 5.83233 52.0897 5.91395C52.1721 6.07718 52.4192 6.34924 52.4466 6.37645Z" fill="#004E8D"/>
<path fill-rule="evenodd" clip-rule="evenodd" d="M51.4033 3.79185H52.941C52.941 2.97568 53.3529 2.1323 53.3529 2.02347C53.2431 1.99627 53.1881 1.96906 53.1058 1.91465C52.941 1.80582 52.8312 1.75141 52.6664 1.64259L52.4468 1.45215C52.3918 1.53377 52.1173 1.80582 51.8976 2.1595C51.8701 2.21391 51.8427 2.24112 51.8152 2.29553C51.5955 2.64921 51.4033 3.38377 51.4033 3.79185Z" fill="#004E8D"/>
<path fill-rule="evenodd" clip-rule="evenodd" d="M56.4004 2.02347C56.4553 2.1323 56.5102 2.29553 56.5377 2.40435C56.675 2.78524 56.7848 3.35656 56.7848 3.79185H58.3225C58.3225 3.60141 58.2676 3.22053 58.2127 3.0573C58.1028 2.5948 57.8008 1.99627 57.4713 1.6698L57.2791 1.45215C57.1418 1.53377 57.0319 1.64259 56.8397 1.77862C56.7299 1.88744 56.5651 1.94185 56.4004 2.02347Z" fill="#004E8D"/>
<path fill-rule="evenodd" clip-rule="evenodd" d="M56.4004 5.80513C56.675 5.85954 57.1143 6.24042 57.334 6.37645L57.7184 5.91395C58.0754 5.45145 58.3774 4.63527 58.3774 4.03674H56.8397C56.8397 4.52645 56.7299 4.98895 56.5926 5.42424L56.4004 5.80513Z" fill="#004E8D"/>
<path fill-rule="evenodd" clip-rule="evenodd" d="M53.2148 3.71025V3.79187H54.7525V2.34996C54.5603 2.34996 54.2857 2.32275 54.121 2.26834C54.0386 2.24113 53.9288 2.21393 53.8464 2.18672C53.764 2.15951 53.6542 2.1051 53.5718 2.1051C53.5444 2.18672 53.4071 2.5404 53.3247 2.83966C53.2698 3.11172 53.2148 3.41098 53.2148 3.71025Z" fill="#004E8D"/>
<path fill-rule="evenodd" clip-rule="evenodd" d="M53.2148 4.09115C53.2148 4.39042 53.2698 4.68968 53.3247 4.93454C53.4071 5.2066 53.5718 5.61468 53.5718 5.6691C53.9837 5.56027 54.1484 5.45145 54.7525 5.45145V4.03674H53.2148V4.09115Z" fill="#004E8D"/>
<path fill-rule="evenodd" clip-rule="evenodd" d="M55 2.34997V3.79188H56.5377C56.5377 3.22056 56.4279 2.81247 56.2356 2.29556C56.2082 2.24115 56.1807 2.18674 56.1807 2.13232C56.0984 2.13232 55.9885 2.18674 55.9336 2.21394C55.6865 2.26835 55.2471 2.34997 55 2.34997Z" fill="#004E8D"/>
<path fill-rule="evenodd" clip-rule="evenodd" d="M55 5.47865C55.5766 5.47865 55.7688 5.61468 56.1533 5.6963C56.1533 5.64189 56.2631 5.42424 56.2906 5.34263C56.4553 4.90733 56.5377 4.52645 56.5377 4.03674H55V5.47865Z" fill="#004E8D"/>
<path fill-rule="evenodd" clip-rule="evenodd" d="M56.2632 1.80588C56.4279 1.77868 57.032 1.39779 57.1144 1.28897C57.032 1.15294 56.4554 0.853676 56.2906 0.772059C56.1259 0.717647 55.9611 0.636029 55.7964 0.608824C55.6591 0.581618 55.3845 0.5 55.2197 0.5C55.2746 0.581618 55.4394 0.717647 55.5218 0.799265C55.8238 1.09853 56.0709 1.45221 56.2632 1.80588Z" fill="#004E8D"/>
<path fill-rule="evenodd" clip-rule="evenodd" d="M52.6387 1.28897C52.721 1.39779 53.3251 1.80588 53.4899 1.80588C53.5723 1.66985 53.6272 1.56103 53.7096 1.45221C53.8743 1.18015 54.0391 1.01691 54.2313 0.799265C54.3137 0.690441 54.451 0.608824 54.5333 0.5C54.094 0.5 53.435 0.799265 53.0506 1.01691C52.9407 1.07132 52.6936 1.20735 52.6387 1.28897Z" fill="#004E8D"/>
<path fill-rule="evenodd" clip-rule="evenodd" d="M55.2471 7.32869C55.659 7.32869 56.3454 7.05663 56.7298 6.81178C56.8122 6.75737 56.8671 6.73016 56.9221 6.67575L57.1143 6.53972V6.48531C57.0319 6.45811 56.5926 6.07722 56.263 5.99561C56.2081 6.21325 55.7139 6.83899 55.5217 7.00222C55.4393 7.11105 55.302 7.24708 55.2471 7.32869Z" fill="#004E8D"/>
<path fill-rule="evenodd" clip-rule="evenodd" d="M52.6387 6.53972C52.7485 6.70296 53.2428 6.94781 53.4624 7.02943C53.6821 7.13825 54.2862 7.30149 54.5333 7.32869C54.4784 7.27428 54.451 7.24708 54.396 7.19266C54.2587 7.08384 53.8469 6.56693 53.737 6.37649C53.6821 6.29487 53.5448 6.07722 53.5174 5.99561C53.3801 6.02281 53.1878 6.15884 53.0506 6.21325C52.9407 6.29487 52.721 6.4309 52.6387 6.53972Z" fill="#004E8D"/>
<path fill-rule="evenodd" clip-rule="evenodd" d="M53.709 1.91466C53.9561 2.02349 54.5053 2.1051 54.7524 2.1051V0.635986C54.6151 0.663192 54.2307 1.12569 54.1483 1.20731C54.011 1.45216 53.8737 1.6426 53.709 1.91466Z" fill="#004E8D"/>
<path fill-rule="evenodd" clip-rule="evenodd" d="M53.709 5.88674C53.9012 6.26762 53.9287 6.26762 54.1758 6.59409C54.2307 6.67571 54.67 7.13821 54.7799 7.16541C54.7799 6.73012 54.7799 6.26762 54.7799 5.83233C54.7799 5.64189 54.725 5.6963 54.5877 5.7235C54.3131 5.75071 54.2582 5.75071 53.9836 5.80512C53.9012 5.83233 53.8188 5.88674 53.709 5.88674Z" fill="#004E8D"/>
<path fill-rule="evenodd" clip-rule="evenodd" d="M55 2.10512C55.3295 2.10512 55.7963 2.0235 56.0434 1.91468C55.9885 1.77865 55.9061 1.66983 55.8238 1.561C55.7963 1.50659 55.7414 1.45218 55.7139 1.39777C55.6041 1.23453 55.3844 0.989679 55.2471 0.853649C55.1648 0.772032 55.1648 0.744826 55 0.663208V2.10512Z" fill="#004E8D"/>
<path fill-rule="evenodd" clip-rule="evenodd" d="M55.0001 7.16541C55.055 7.16541 55.3022 6.92055 55.3022 6.89335C55.6591 6.45805 55.6866 6.48526 56.0161 5.88673C55.9063 5.88673 55.4669 5.69629 54.9727 5.69629V7.16541H55.0001Z" fill="#004E8D"/>
</g>
<defs>
<clipPath id="clip0_2068_6095">
<rect width="110" height="37" fill="white" transform="translate(0 0.5)"/>
</clipPath>
</defs>
</svg>
